# xmcd
#
# Track frame offsets:
#	182
#	14540
#	28342
#	40205
#	52810
#	66497
#	80825
#	95120
#	108720
#	123202
#	136482
#	151537
#	164692
#	179655
#	192882
#	207387
#	219542
#	232797
#	247212
#	261607
#
# Disc length: 3689 seconds
# Revision: 2
# Processed by: cddbd v1.5.2PL0 Copyright (c) Steve Scherf et al.
# Submitted via: dBpowerAMP V12.0
#
DISCID=330e6714
DTITLE=Various Artist - Mississippi Masters - Early American Blues Classics 1927-35 (Yazoo, 1994)
DYEAR=1994
DGENRE=Blues
TTITLE0=Garfield Akers - Dough Roller Blues (1930)
TTITLE1=William Harris - Kansas City Blues (1928)
TTITLE2=Otto Virgial - Little Girl In Rome (1935)
TTITLE3=Mattie Delaney - Tallahatchie River Blues (1930)
TTITLE4=Geeshie Wiley - Last Kind Words (1930)
TTITLE5=Joe Calicott - Fare Thee Well Blues (1930)
TTITLE6=William Harris - Bullfrog Blues (1928)
TTITLE7=John D. Fox - The Moaning Blues (1927)
TTITLE8=Geeshie Wiley and Elvie Thomas - Pick Poor Robin Clean (1931)
TTITLE9=Blind Joe Reynolds - Outside Woman Blues (1930)
TTITLE10=King Solomon Hill - Gone Dead Train (1932)
TTITLE11=Garfield Akers - Cottonfield Blues Part 1 (1929) 
TTITLE12=Garfield Akers - Cottonfield Blues Part 2 (1929)
TTITLE13=William Harris - Hot Time Blues (1928)
TTITLE14=Geeshie Wiley - Skinny Legs Blues (1930)
TTITLE15=Blind Joe Reynolds - Third Street Woman Blues (1930)
TTITLE16=John D. Fox - Worried Man Blues (1927)
TTITLE17=Mattie Delaney - Down The Big Road Blues (1930)
TTITLE18=King Solomon Hill - Whoopee Blues (1932)
TTITLE19=Elvie Thomas - Motherless Child Blues (1930)
EXTD=
EXTT0=
EXTT1=
EXTT2=
EXTT3=
EXTT4=
EXTT5=
EXTT6=
EXTT7=
EXTT8=
EXTT9=
EXTT10=
EXTT11=
EXTT12=
EXTT13=
EXTT14=
EXTT15=
EXTT16=
EXTT17=
EXTT18=
EXTT19=
PLAYORDER=
